<svg width="800" height="600" viewBox="0 0 800 600" fill="none" xmlns="http://www.w3.org/2000/svg">
  <defs>
    <linearGradient id="bg" x1="0" y1="0" x2="800" y2="600" gradientUnits="userSpaceOnUse">
      <stop offset="0" stop-color="#0F172A"/>
      <stop offset="1" stop-color="#164E63"/>
    </linearGradient>
    <linearGradient id="card" x1="90" y1="80" x2="710" y2="520" gradientUnits="userSpaceOnUse">
      <stop offset="0" stop-color="#1E293B"/>
      <stop offset="1" stop-color="#0F172A"/>
    </linearGradient>
  </defs>
  <rect width="800" height="600" rx="32" fill="url(#bg)"/>
  <circle cx="655" cy="124" r="84" fill="#06B6D4" fill-opacity="0.22"/>
  <circle cx="130" cy="490" r="104" fill="#22D3EE" fill-opacity="0.15"/>
  <rect x="90" y="80" width="620" height="440" rx="28" fill="url(#card)" stroke="#67E8F9" stroke-opacity="0.25"/>
  <rect x="132" y="128" width="536" height="20" rx="10" fill="#0891B2" fill-opacity="0.6"/>
  <rect x="132" y="170" width="380" height="14" rx="7" fill="#E2E8F0" fill-opacity="0.75"/>
  <rect x="132" y="196" width="290" height="14" rx="7" fill="#E2E8F0" fill-opacity="0.45"/>
  <rect x="132" y="250" width="168" height="116" rx="16" fill="#0E7490" fill-opacity="0.35" stroke="#67E8F9" stroke-opacity="0.3"/>
  <rect x="316" y="250" width="168" height="116" rx="16" fill="#0E7490" fill-opacity="0.25" stroke="#67E8F9" stroke-opacity="0.3"/>
  <rect x="500" y="250" width="168" height="116" rx="16" fill="#0E7490" fill-opacity="0.2" stroke="#67E8F9" stroke-opacity="0.3"/>
  <rect x="132" y="395" width="250" height="14" rx="7" fill="#22D3EE" fill-opacity="0.45"/>
  <rect x="132" y="421" width="180" height="14" rx="7" fill="#E2E8F0" fill-opacity="0.5"/>
  <rect x="500" y="395" width="168" height="40" rx="20" fill="#06B6D4" fill-opacity="0.8"/>
  <text x="130" y="490" fill="#CFFAFE" font-family="Inter, Arial, sans-serif" font-size="22" font-weight="600">Yisak Gezahegn</text>
</svg>
